<?xml version="1.0" encoding="utf-8"?>
<!-- Generator: Adobe Illustrator 28.1.0, SVG Export Plug-In . SVG Version: 6.00 Build 0)  -->
<svg version="1.1" id="telegram-logo" xmlns="http://www.w3.org/2000/svg" xmlns:xlink="http://www.w3.org/1999/xlink" x="0px"
	 y="0px" viewBox="0 0 1040 1043" style="enable-background:new 0 0 1040 1043;" xml:space="preserve">
<style type="text/css">
	.st0{fill:#00AFE4;}
	.st1{fill:#FFFFFF;}
	.st2{fill:#E6E6E6;}
	.st3{fill:#E6E7E8;}

	@keyframes fly {
		0% {transform: scale(1);}
		50% {
			transform: scale(0.1) translate(200%, -200%);
			}
		100% {transform: scale(0);}
	}

	#telegram-logo:hover #plane {
		animation: fly 10s infinite;
		transform-origin: center;
	}

</style>

<script>
    const VectorGraphic = document.querySelector('#telegram-logo');

    function logThisId() {
    console.log(this);
    console.log('clicked on this element', this.id);
    }

    VectorGraphic.addEventListener('click', logThisId);
</script>

<ellipse id="background" class="st0" cx="505" cy="472" rx="317" ry="319"/>
<g id="plane">
	<path class="st1" d="M335,447l303.6-111c0,0,22-12,18,13s-55.9,249-55.9,249s-3,34-33,12s-67.9-46-67.9-46l-46.9,42c0,0-14,16-21-8
		l-31-97l-80.1-25.7C320.8,475.3,293,462,335,447z"/>
	<path class="st2" d="M586,384c-47.3,28.4-187,117-187,117s28,85,36,104c2.5,5.8,5,7,5,0c0-27,7-84,7-84s112-101,144-136
		C591.9,384.1,591,381,586,384z"/>
	<path class="st3" d="M448,525c0,0-8,77-6.8,83.4c0.7,3.8,2.8,5.6,12.8-2.4s47-41.7,47-41.7L448,525z"/>
</g>
</svg>
