<?xml version="1.0" encoding="utf-8"?>
<!-- Generator: Adobe Illustrator 28.1.0, SVG Export Plug-In . SVG Version: 6.00 Build 0)  -->
<svg version="1.1" id="pinerest-logo" xmlns="http://www.w3.org/2000/svg" xmlns:xlink="http://www.w3.org/1999/xlink" x="0px"
	 y="0px" viewBox="0 0 686.5 710" style="enable-background:new 0 0 686.5 710;" xml:space="preserve">
<style type="text/css">
	.st0{fill:#CE2026;}
	.st1{fill:#FFFFFF;}

	#pinerest-logo:hover #p-l {
		animation: spin 2s infinite;
		transform-origin: center;
	}

	@keyframes spin {
	0% {transform: rotate(0deg);}
    100% {transform: rotate(360deg);}
	}

</style>

<script>
    const VectorGraphic = document.querySelector('#pinerest-logo');

    function logThisId() {
    console.log(this);
    console.log('clicked on this element', this.id);
    }

    VectorGraphic.addEventListener('click', logThisId);
</script>

<circle id="background_00000059291287740309551930000008515352318726751108_" class="st0" cx="343.5" cy="336.5" r="225.5"/>
<path id="p-l" class="st1" d="M477,272c-21-37-56-75-117-79s-112,25-140,63s-32,140,32,164c5-13,7-33,7-33c-58-89,30.7-157.9,81-154
	c52,4,71,15,90,55c17.2,36.3,15,68-15,115c-38.2,59.8-91,14-83-14c9.5-33.2,42-111-9-108c-62.3,3.7-34,91.3-34,91.3l-14.9,51.4l0,0
	c0.1,0.8,0.1,1.8-0.1,3.3c-1,11.2-22,78-14,119l16.7,5.9c0,0,22.7-29.1,29.3-59.9c6-28,13.5-49.8,13-53c0,0,10.5,18.5,31,24
	c18.9,5.1,44.8,5.4,77-14C495,408,498,309,477,272z"/>
</svg>
